<svg viewBox="335 297.4273 379.9999 102.1453" width="5000" height="1344.017458951963" xmlns="http://www.w3.org/2000/svg" xmlns:xlink="http://www.w3.org/1999/xlink" preserveAspectRatio="none"><defs></defs><style>.a6izo4zJpcolor {fill:#7C7C7C;fill-opacity:1;}.aD6z1nYkhcolor {fill:#7C7C7C;fill-opacity:1;}.aIptOCySncolors-0 {fill:#7C7C7C;fill-opacity:1;}.aojQRzRnTm0filter-floo {flood-color:#000000;flood-opacity:1;}</style><defs>
      <filter
        x="-1000"
        y="-1000"
        width="5000"
        height="5000"
        id="ojQRzRnTm"
        filterUnits="userSpaceOnUse"
        primitiveUnits="userSpaceOnUse"
        color-interpolation-filters="sRGB">
        <feMerge><feMergeNode in="SourceGraphic" /></feMerge>
      </filter></defs><g opacity="1" transform="rotate(0 335 297.4273)">
<svg width="120.2819" height="102.1453" x="335" y="297.4273" version="1.1" preserveAspectRatio="none" viewBox="2 3.999781370162964 19.329261779785156 16.414718627929688">
  <g transform="matrix(1 0 0 1 0 0)" class="aIptOCySncolors-0"><title>geo-4c</title><desc>Created with Sketch.</desc><g stroke-width="1" fill-rule="evenodd"><g><path d="M10.2175,9.2965 L12.4895,14.1675 L8.2085,13.2675 L5.9365,8.3965 L10.2175,9.2965 Z M18.3745,5.4925 L20.6465,10.3645 L16.3645,9.4645 L14.0935,4.5935 L18.3745,5.4925 Z M14.8895,19.8885 L5.1925,18.1405 L8.1475,13.7655 L12.8755,14.7595 C12.8935,14.7635 12.9105,14.7645 12.9275,14.7645 C12.9625,14.7645 12.9985,14.7575 13.0325,14.7415 C13.0345,14.7415 13.0345,14.7395 13.0355,14.7385 C13.0465,14.7335 13.0555,14.7235 13.0655,14.7165 C13.0785,14.7075 13.0865,14.6985 13.0975,14.6885 C13.1085,14.6765 13.1245,14.6695 13.1345,14.6555 L16.3045,9.9625 L20.6775,10.8815 L14.8895,19.8885 Z M21.3185,10.7805 C21.3205,10.7735 21.3275,10.7695 21.3285,10.7625 C21.3325,10.7445 21.3195,10.7295 21.3185,10.7115 C21.3185,10.6835 21.3205,10.6605 21.3125,10.6345 C21.3085,10.6255 21.3145,10.6155 21.3105,10.6065 L18.7745,5.1685 C18.7715,5.1615 18.7645,5.1615 18.7615,5.1555 C18.7455,5.1265 18.7185,5.1135 18.6925,5.0925 C18.6665,5.0725 18.6465,5.0495 18.6155,5.0395 C18.6085,5.0375 18.6065,5.0305 18.5995,5.0295 L13.7065,4.0005 C13.6885,3.9965 13.6735,4.0105 13.6565,4.0105 C13.6295,4.0105 13.6075,4.0095 13.5825,4.0175 C13.5715,4.0205 13.5605,4.0135 13.5495,4.0185 C13.5445,4.0215 13.5435,4.0285 13.5385,4.0315 C13.5175,4.0425 13.5075,4.0605 13.4905,4.0775 C13.4785,4.0895 13.4585,4.0905 13.4485,4.1055 L10.2785,8.7985 L5.5495,7.8045 C5.5315,7.8005 5.5175,7.8135 5.4995,7.8135 C5.4725,7.8135 5.4515,7.8125 5.4255,7.8205 C5.4145,7.8245 5.4035,7.8175 5.3935,7.8225 C5.3875,7.8255 5.3865,7.8325 5.3805,7.8355 C5.3605,7.8465 5.3505,7.8645 5.3335,7.8805 C5.3215,7.8925 5.3015,7.8935 5.2915,7.9085 L2.0275,12.7405 C2.0215,12.7495 2.0265,12.7615 2.0215,12.7715 C2.0065,12.8015 2.0055,12.8285 2.0025,12.8625 C2.0005,12.8955 1.9965,12.9235 2.0065,12.9545 C2.0105,12.9655 2.0035,12.9755 2.0085,12.9865 L4.5435,18.4245 C4.5475,18.4325 4.5565,18.4365 4.5615,18.4445 C4.5695,18.4585 4.5805,18.4665 4.5915,18.4785 C4.6015,18.4895 4.6095,18.5025 4.6215,18.5115 C4.6255,18.5155 4.6255,18.5225 4.6305,18.5255 C4.6315,18.5265 4.6335,18.5265 4.6345,18.5275 C4.6545,18.5395 4.6785,18.5415 4.7015,18.5485 C4.7115,18.5525 4.7155,18.5625 4.7265,18.5645 L14.9655,20.4105 C14.9795,20.4125 14.9945,20.4145 15.0095,20.4145 L15.0105,20.4145 C15.0105,20.4145 15.0105,20.4135 15.0115,20.4135 C15.0625,20.4135 15.1085,20.3935 15.1505,20.3635 C15.1635,20.3545 15.1715,20.3455 15.1825,20.3345 C15.1945,20.3225 15.2105,20.3145 15.2205,20.2995 L21.2945,10.8465 C21.3005,10.8385 21.2955,10.8275 21.2995,10.8185 C21.3065,10.8045 21.3135,10.7945 21.3185,10.7805 L21.3185,10.7805 Z"></path></g></g></g>
</svg>
</g><g opacity="1" transform="rotate(0 467.955 374.0996)">
<svg width="176.9279" height="15.9682" x="467.955" y="374.0996" version="1.1" preserveAspectRatio="none" viewBox="3.76 -30.88 431.24 38.92">
  <g transform="matrix(1 0 0 1 0 0)" class="a6izo4zJpcolor"><path d="M34.40 0L29.48 0L29.44-18.56L20.24-3.20L17.92-3.20L8.72-18.32L8.72 0L3.76 0L3.76-28L8.04-28L19.16-9.44L30.08-28L34.36-28L34.40 0Z M53.64-21.60Q58.36-21.60 60.86-19.34Q63.36-17.08 63.36-12.52L63.36-12.52L63.36 0L58.64 0L58.64-2.60Q57.72-1.20 56.02-0.46Q54.32 0.28 51.92 0.28L51.92 0.28Q49.52 0.28 47.72-0.54Q45.92-1.36 44.94-2.82Q43.96-4.28 43.96-6.12L43.96-6.12Q43.96-9 46.10-10.74Q48.24-12.48 52.84-12.48L52.84-12.48L58.36-12.48L58.36-12.80Q58.36-15.04 57.02-16.24Q55.68-17.44 53.04-17.44L53.04-17.44Q51.24-17.44 49.50-16.88Q47.76-16.32 46.56-15.32L46.56-15.32L44.60-18.96Q46.28-20.24 48.64-20.92Q51-21.60 53.64-21.60L53.64-21.60ZM52.96-3.36Q54.84-3.36 56.30-4.22Q57.76-5.08 58.36-6.68L58.36-6.68L58.36-9.16L53.20-9.16Q48.88-9.16 48.88-6.32L48.88-6.32Q48.88-4.96 49.96-4.16Q51.04-3.36 52.96-3.36L52.96-3.36Z M85.88-21.60Q89.92-21.60 92.36-19.24Q94.80-16.88 94.80-12.24L94.80-12.24L94.80 0L89.80 0L89.80-11.60Q89.80-14.40 88.48-15.82Q87.16-17.24 84.72-17.24L84.72-17.24Q81.96-17.24 80.36-15.58Q78.76-13.92 78.76-10.80L78.76-10.80L78.76 0L73.76 0L73.76-21.36L78.52-21.36L78.52-18.60Q79.76-20.08 81.64-20.84Q83.52-21.60 85.88-21.60L85.88-21.60Z M113.32-21.60Q118.04-21.60 120.54-19.34Q123.04-17.08 123.04-12.52L123.04-12.52L123.04 0L118.32 0L118.32-2.60Q117.40-1.20 115.70-0.46Q114.00 0.28 111.60 0.28L111.60 0.28Q109.20 0.28 107.40-0.54Q105.60-1.36 104.62-2.82Q103.64-4.28 103.64-6.12L103.64-6.12Q103.64-9 105.78-10.74Q107.92-12.48 112.52-12.48L112.52-12.48L118.04-12.48L118.04-12.80Q118.04-15.04 116.70-16.24Q115.36-17.44 112.72-17.44L112.72-17.44Q110.92-17.44 109.18-16.88Q107.44-16.32 106.24-15.32L106.24-15.32L104.28-18.96Q105.96-20.24 108.32-20.92Q110.68-21.60 113.32-21.60L113.32-21.60ZM112.64-3.36Q114.52-3.36 115.98-4.22Q117.44-5.08 118.04-6.68L118.04-6.68L118.04-9.16L112.88-9.16Q108.56-9.16 108.56-6.32L108.56-6.32Q108.56-4.96 109.64-4.16Q110.72-3.36 112.64-3.36L112.64-3.36Z M150.08-21.36L154.84-21.36L154.84-3.24Q154.84 8.04 143.32 8.04L143.32 8.04Q140.24 8.04 137.48 7.26Q134.72 6.48 132.92 5L132.92 5L135.16 1.24Q136.56 2.40 138.70 3.10Q140.84 3.80 143.04 3.80L143.04 3.80Q146.56 3.80 148.20 2.20Q149.84 0.60 149.84-2.68L149.84-2.68L149.84-3.80Q148.56-2.40 146.72-1.68Q144.88-0.96 142.68-0.96L142.68-0.96Q139.64-0.96 137.18-2.26Q134.72-3.56 133.30-5.92Q131.88-8.28 131.88-11.32L131.88-11.32Q131.88-14.36 133.30-16.70Q134.72-19.04 137.18-20.32Q139.64-21.60 142.68-21.60L142.68-21.60Q145-21.60 146.90-20.84Q148.80-20.08 150.08-18.52L150.08-18.52L150.08-21.36ZM143.44-5.20Q146.28-5.20 148.10-6.90Q149.92-8.60 149.92-11.32L149.92-11.32Q149.92-14 148.10-15.68Q146.28-17.36 143.44-17.36L143.44-17.36Q140.56-17.36 138.74-15.68Q136.92-14 136.92-11.32L136.92-11.32Q136.92-8.60 138.74-6.90Q140.56-5.20 143.44-5.20L143.44-5.20Z M185.48-10.56Q185.48-10.04 185.40-9.08L185.40-9.08L168.64-9.08Q169.08-6.72 170.94-5.34Q172.80-3.96 175.56-3.96L175.56-3.96Q179.08-3.96 181.36-6.28L181.36-6.28L184.04-3.20Q182.60-1.48 180.40-0.60Q178.20 0.28 175.44 0.28L175.44 0.28Q171.92 0.28 169.24-1.12Q166.56-2.52 165.10-5.02Q163.64-7.52 163.64-10.68L163.64-10.68Q163.64-13.80 165.06-16.30Q166.48-18.80 169-20.20Q171.52-21.60 174.68-21.60L174.68-21.60Q177.80-21.60 180.26-20.22Q182.72-18.84 184.10-16.34Q185.48-13.84 185.48-10.56L185.48-10.56ZM174.68-17.60Q172.28-17.60 170.62-16.18Q168.96-14.76 168.60-12.40L168.60-12.40L180.72-12.40Q180.40-14.72 178.76-16.16Q177.12-17.60 174.68-17.60L174.68-17.60Z M210.20-29.68L215.20-29.68L215.20 0L210.40 0L210.40-2.76Q209.16-1.24 207.34-0.48Q205.52 0.28 203.32 0.28L203.32 0.28Q200.24 0.28 197.78-1.08Q195.32-2.44 193.92-4.94Q192.52-7.44 192.52-10.68L192.52-10.68Q192.52-13.92 193.92-16.40Q195.32-18.88 197.78-20.24Q200.24-21.60 203.32-21.60L203.32-21.60Q205.44-21.60 207.20-20.88Q208.96-20.16 210.20-18.72L210.20-18.72L210.20-29.68ZM203.92-4Q205.72-4 207.16-4.82Q208.60-5.64 209.44-7.16Q210.28-8.68 210.28-10.68L210.28-10.68Q210.28-12.68 209.44-14.20Q208.60-15.72 207.16-16.54Q205.72-17.36 203.92-17.36L203.92-17.36Q202.12-17.36 200.68-16.54Q199.24-15.72 198.40-14.20Q197.56-12.68 197.56-10.68L197.56-10.68Q197.56-8.68 198.40-7.16Q199.24-5.64 200.68-4.82Q202.12-4 203.92-4L203.92-4Z M249.96 0.40Q246.72 0.40 243.70-0.52Q240.68-1.44 238.92-2.96L238.92-2.96L240.72-7Q242.44-5.64 244.94-4.78Q247.44-3.92 249.96-3.92L249.96-3.92Q253.08-3.92 254.62-4.92Q256.16-5.92 256.16-7.56L256.16-7.56Q256.16-8.76 255.30-9.54Q254.44-10.32 253.12-10.76Q251.80-11.20 249.52-11.76L249.52-11.76Q246.32-12.52 244.34-13.28Q242.36-14.04 240.94-15.66Q239.52-17.28 239.52-20.04L239.52-20.04Q239.52-22.36 240.78-24.26Q242.04-26.16 244.58-27.28Q247.12-28.40 250.80-28.40L250.80-28.40Q253.36-28.40 255.84-27.76Q258.32-27.12 260.12-25.92L260.12-25.92L258.48-21.88Q256.64-22.96 254.64-23.52Q252.64-24.08 250.76-24.08L250.76-24.08Q247.68-24.08 246.18-23.04Q244.68-22 244.68-20.28L244.68-20.28Q244.68-19.08 245.54-18.32Q246.40-17.56 247.72-17.12Q249.04-16.68 251.32-16.12L251.32-16.12Q254.44-15.40 256.44-14.62Q258.44-13.84 259.86-12.24Q261.28-10.64 261.28-7.92L261.28-7.92Q261.28-5.60 260.02-3.72Q258.76-1.84 256.20-0.72Q253.64 0.40 249.96 0.40L249.96 0.40Z M290.04-10.56Q290.04-10.04 289.96-9.08L289.96-9.08L273.20-9.08Q273.64-6.72 275.50-5.34Q277.36-3.96 280.12-3.96L280.12-3.96Q283.64-3.96 285.92-6.28L285.92-6.28L288.60-3.20Q287.16-1.48 284.96-0.60Q282.76 0.28 280 0.28L280 0.28Q276.48 0.28 273.80-1.12Q271.12-2.52 269.66-5.02Q268.20-7.52 268.20-10.68L268.20-10.68Q268.20-13.80 269.62-16.30Q271.04-18.80 273.56-20.20Q276.08-21.60 279.24-21.60L279.24-21.60Q282.36-21.60 284.82-20.22Q287.28-18.84 288.66-16.34Q290.04-13.84 290.04-10.56L290.04-10.56ZM279.24-17.60Q276.84-17.60 275.18-16.18Q273.52-14.76 273.16-12.40L273.16-12.40L285.28-12.40Q284.96-14.72 283.32-16.16Q281.68-17.60 279.24-17.60L279.24-17.60Z M303.60-18.24Q305.76-21.60 311.20-21.60L311.20-21.60L311.20-16.84Q310.56-16.96 310.04-16.96L310.04-16.96Q307.12-16.96 305.48-15.26Q303.84-13.56 303.84-10.36L303.84-10.36L303.84 0L298.84 0L298.84-21.36L303.60-21.36L303.60-18.24Z M335.44-21.36L340.24-21.36L331.08 0L325.92 0L316.76-21.36L321.96-21.36L328.60-5.52L335.44-21.36Z M347.36 0L347.36-21.36L352.36-21.36L352.36 0L347.36 0ZM349.88-24.88Q348.52-24.88 347.60-25.74Q346.68-26.60 346.68-27.88L346.68-27.88Q346.68-29.16 347.60-30.02Q348.52-30.88 349.88-30.88L349.88-30.88Q351.24-30.88 352.16-30.06Q353.08-29.24 353.08-28L353.08-28Q353.08-26.68 352.18-25.78Q351.28-24.88 349.88-24.88L349.88-24.88Z M372.72 0.28Q369.40 0.28 366.76-1.12Q364.12-2.52 362.64-5.02Q361.16-7.52 361.16-10.68L361.16-10.68Q361.16-13.84 362.64-16.32Q364.12-18.80 366.74-20.20Q369.36-21.60 372.72-21.60L372.72-21.60Q375.88-21.60 378.26-20.32Q380.64-19.04 381.84-16.64L381.84-16.64L378.00-14.40Q377.08-15.88 375.70-16.62Q374.32-17.36 372.68-17.36L372.68-17.36Q369.88-17.36 368.04-15.54Q366.20-13.72 366.20-10.68L366.20-10.68Q366.20-7.64 368.02-5.82Q369.84-4 372.68-4L372.68-4Q374.32-4 375.70-4.74Q377.08-5.48 378.00-6.96L378.00-6.96L381.84-4.72Q380.60-2.32 378.22-1.02Q375.84 0.28 372.72 0.28L372.72 0.28Z M409.92-10.56Q409.92-10.04 409.84-9.08L409.84-9.08L393.08-9.08Q393.52-6.72 395.38-5.34Q397.24-3.96 400.00-3.96L400.00-3.96Q403.52-3.96 405.80-6.28L405.80-6.28L408.48-3.20Q407.04-1.48 404.84-0.60Q402.64 0.28 399.88 0.28L399.88 0.28Q396.36 0.28 393.68-1.12Q391.00-2.52 389.54-5.02Q388.08-7.52 388.08-10.68L388.08-10.68Q388.08-13.80 389.50-16.30Q390.92-18.80 393.44-20.20Q395.96-21.60 399.12-21.60L399.12-21.60Q402.24-21.60 404.70-20.22Q407.16-18.84 408.54-16.34Q409.92-13.84 409.92-10.56L409.92-10.56ZM399.12-17.60Q396.72-17.60 395.06-16.18Q393.40-14.76 393.04-12.40L393.04-12.40L405.16-12.40Q404.84-14.72 403.20-16.16Q401.56-17.60 399.12-17.60L399.12-17.60Z M425.32 0.28Q422.72 0.28 420.24-0.40Q417.76-1.08 416.28-2.12L416.28-2.12L418.20-5.92Q419.64-4.96 421.66-4.38Q423.68-3.80 425.64-3.80L425.64-3.80Q430.12-3.80 430.12-6.16L430.12-6.16Q430.12-7.28 428.98-7.72Q427.84-8.16 425.32-8.56L425.32-8.56Q422.68-8.96 421.02-9.48Q419.36-10 418.14-11.30Q416.92-12.60 416.92-14.92L416.92-14.92Q416.92-17.96 419.46-19.78Q422.00-21.60 426.32-21.60L426.32-21.60Q428.52-21.60 430.72-21.10Q432.92-20.60 434.32-19.76L434.32-19.76L432.40-15.96Q429.68-17.56 426.28-17.56L426.28-17.56Q424.08-17.56 422.94-16.90Q421.80-16.24 421.80-15.16L421.80-15.16Q421.80-13.96 423.02-13.46Q424.24-12.96 426.80-12.52L426.80-12.52Q429.36-12.12 431.00-11.60Q432.64-11.08 433.82-9.84Q435.00-8.60 435.00-6.32L435.00-6.32Q435.00-3.32 432.40-1.52Q429.80 0.28 425.32 0.28L425.32 0.28Z"/></g>
</svg>
</g><g opacity="1" transform="rotate(0 467.955 306.9321)">
<svg width="247.0449" height="57.029" x="467.955" y="306.9321" version="1.1" preserveAspectRatio="none" viewBox="1.76 -28 122.67999999999999 28.32">
  <g transform="matrix(1 0 0 1 0 0)" class="aD6z1nYkhcolor"><path d="M2.24 0Q2.04 0 1.90-0.14Q1.76-0.28 1.76-0.48L1.76-0.48L1.76-27.52Q1.76-27.72 1.90-27.86Q2.04-28 2.24-28L2.24-28L9.48-28Q13.12-28 15.32-25.88Q17.52-23.76 17.52-20.24L17.52-20.24L17.52-7.76Q17.52-4.24 15.32-2.12Q13.12 0 9.48 0L9.48 0L2.24 0ZM7.40-5.04Q7.40-4.84 7.60-4.84L7.60-4.84L9.40-4.88Q10.48-4.92 11.16-5.80Q11.84-6.68 11.88-8.12L11.88-8.12L11.88-19.88Q11.88-21.40 11.20-22.28Q10.52-23.16 9.36-23.16L9.36-23.16L7.60-23.16Q7.40-23.16 7.40-22.96L7.40-22.96L7.40-5.04Z M27.96-20.88Q31.36-20.88 33.48-19.04Q35.60-17.20 35.60-14.20L35.60-14.20L35.60-0.48Q35.60-0.28 35.46-0.14Q35.32 0 35.12 0L35.12 0L30.44 0Q30.24 0 30.10-0.14Q29.96-0.28 29.96-0.48L29.96-0.48L29.96-1.36Q29.96-1.48 29.88-1.52Q29.80-1.56 29.72-1.44L29.72-1.44Q28.36 0.28 25.64 0.32L25.64 0.32Q23.32 0.32 21.62-0.96Q19.92-2.24 19.92-5.84L19.92-5.84Q19.92-9.56 21.98-10.96Q24.04-12.36 27.92-12.36L27.92-12.36L29.76-12.36Q29.96-12.36 29.96-12.56L29.96-12.56L29.96-13.56Q29.96-14.64 29.38-15.34Q28.80-16.04 27.92-16.04L27.92-16.04Q27.24-16.04 26.78-15.62Q26.32-15.20 26.20-14.44L26.20-14.44Q26.16-13.96 25.68-13.96L25.68-13.96L20.88-14Q20.40-14 20.40-14.48L20.40-14.48Q20.60-17.40 22.68-19.14Q24.76-20.88 27.96-20.88L27.96-20.88ZM27.52-4.04Q28.48-4.04 29.22-4.66Q29.96-5.28 29.96-6.32L29.96-6.32L29.96-8.20Q29.96-8.40 29.76-8.40L29.76-8.40L28.12-8.40Q27.04-8.40 26.38-7.78Q25.72-7.16 25.72-6.08L25.72-6.08Q25.72-5.08 26.22-4.56Q26.72-4.04 27.52-4.04L27.52-4.04Z M48.64-27.52Q48.64-27.72 48.78-27.86Q48.92-28 49.12-28L49.12-28L53.80-28Q54-28 54.14-27.86Q54.28-27.72 54.28-27.52L54.28-27.52L54.28-0.48Q54.28-0.28 54.14-0.14Q54 0 53.80 0L53.80 0L49.12 0Q48.92 0 48.78-0.14Q48.64-0.28 48.64-0.48L48.64-0.48L48.64-11.40Q48.64-11.60 48.44-11.60L48.44-11.60L44.44-11.60Q44.24-11.60 44.24-11.40L44.24-11.40L44.24-0.48Q44.24-0.28 44.10-0.14Q43.96 0 43.76 0L43.76 0L39.08 0Q38.88 0 38.74-0.14Q38.60-0.28 38.60-0.48L38.60-0.48L38.60-27.52Q38.60-27.72 38.74-27.86Q38.88-28 39.08-28L39.08-28L43.76-28Q43.96-28 44.10-27.86Q44.24-27.72 44.24-27.52L44.24-27.52L44.24-16.64Q44.24-16.44 44.44-16.44L44.44-16.44L48.44-16.44Q48.64-16.44 48.64-16.64L48.64-16.64L48.64-27.52Z M64.88 0.32Q61.28 0.32 59.28-1.46Q57.28-3.24 57.28-6.40L57.28-6.40L57.28-14.16Q57.28-17.20 59.30-19.04Q61.32-20.88 64.88-20.88L64.88-20.88Q68.44-20.88 70.46-19.04Q72.48-17.20 72.48-14.16L72.48-14.16L72.48-6.40Q72.48-3.24 70.48-1.46Q68.48 0.32 64.88 0.32L64.88 0.32ZM64.88-4.52Q65.76-4.52 66.30-5.16Q66.84-5.80 66.84-6.84L66.84-6.84L66.84-13.76Q66.84-14.76 66.30-15.40Q65.76-16.04 64.88-16.04L64.88-16.04Q64-16.04 63.46-15.40Q62.92-14.76 62.92-13.76L62.92-13.76L62.92-6.84Q62.92-5.80 63.46-5.16Q64-4.52 64.88-4.52L64.88-4.52Z M84.44-20.08Q84.44-20.28 84.58-20.42Q84.72-20.56 84.92-20.56L84.92-20.56L89.60-20.56Q89.80-20.56 89.94-20.42Q90.08-20.28 90.08-20.08L90.08-20.08L90.08-0.48Q90.08-0.28 89.94-0.14Q89.80 0 89.60 0L89.60 0L84.92 0Q84.72 0 84.58-0.14Q84.44-0.28 84.44-0.48L84.44-0.48L84.44-1.16Q84.44-1.28 84.36-1.32Q84.28-1.36 84.20-1.24L84.20-1.24Q83.60-0.40 82.70-0.06Q81.80 0.28 80.60 0.28L80.60 0.28Q78.20 0.28 76.64-1.18Q75.08-2.64 75.08-5.68L75.08-5.68L75.08-20.08Q75.08-20.28 75.22-20.42Q75.36-20.56 75.56-20.56L75.56-20.56L80.24-20.56Q80.44-20.56 80.58-20.42Q80.72-20.28 80.72-20.08L80.72-20.08L80.72-6.92Q80.72-5.76 81.18-5.14Q81.64-4.52 82.52-4.52L82.52-4.52Q83.40-4.52 83.92-5.20Q84.44-5.88 84.44-7.04L84.44-7.04L84.44-20.08Z M100 0.28Q96.60 0.28 94.58-1.34Q92.56-2.96 92.56-5.68L92.56-5.68L92.56-5.96Q92.56-6.16 92.70-6.30Q92.84-6.44 93.04-6.44L93.04-6.44L97.44-6.44Q97.64-6.44 97.78-6.36Q97.92-6.28 97.92-6.16L97.92-6.16L97.92-5.84Q97.92-5 98.52-4.46Q99.12-3.92 100-3.92L100-3.92Q100.80-3.92 101.26-4.38Q101.72-4.84 101.72-5.56L101.72-5.56Q101.72-6.44 100.96-6.94Q100.20-7.44 99.26-7.78Q98.32-8.12 97.96-8.24L97.96-8.24Q95.76-9.04 94.26-10.46Q92.76-11.88 92.76-14.56L92.76-14.56Q92.76-17.48 94.68-19.16Q96.60-20.84 99.80-20.84L99.80-20.84Q103.12-20.84 105.06-19.08Q107-17.32 107-14.32L107-14.32Q107-14.12 106.86-13.98Q106.72-13.84 106.52-13.84L106.52-13.84L102.24-13.84Q102.04-13.84 101.90-13.96Q101.76-14.08 101.76-14.24L101.76-14.24L101.76-14.64Q101.76-15.44 101.26-15.94Q100.76-16.44 99.96-16.44L99.96-16.44Q99.12-16.44 98.64-15.90Q98.16-15.36 98.16-14.64L98.16-14.64Q98.16-13.68 98.98-13.14Q99.80-12.60 101.48-11.96L101.48-11.96Q103.20-11.32 104.42-10.66Q105.64-10 106.52-8.78Q107.40-7.56 107.40-5.72L107.40-5.72Q107.40-2.96 105.38-1.34Q103.36 0.28 100 0.28L100 0.28Z M124.44-8.92Q124.44-8.72 124.30-8.58Q124.16-8.44 123.96-8.44L123.96-8.44L115.16-8.44Q114.96-8.44 114.96-8.24L114.96-8.24L114.96-6.80Q114.96-5.80 115.50-5.14Q116.04-4.48 116.88-4.48L116.88-4.48Q117.60-4.48 118.10-4.98Q118.60-5.48 118.76-6.24L118.76-6.24Q118.88-6.76 119.32-6.68L119.32-6.68L123.88-6.20Q124.36-6.12 124.32-5.68L124.32-5.68Q124.08-2.84 122.18-1.26Q120.28 0.32 116.88 0.32L116.88 0.32Q113.32 0.32 111.32-1.46Q109.32-3.24 109.32-6.36L109.32-6.36L109.32-14.16Q109.32-17.20 111.34-19.04Q113.36-20.88 116.88-20.88L116.88-20.88Q120.40-20.88 122.42-19.04Q124.44-17.20 124.44-14.16L124.44-14.16L124.44-8.92ZM116.88-16.04Q116.04-16.04 115.50-15.40Q114.96-14.76 114.96-13.76L114.96-13.76L114.96-12.36Q114.96-12.16 115.16-12.16L115.16-12.16L118.60-12.16Q118.80-12.16 118.80-12.36L118.80-12.36L118.80-13.76Q118.80-14.76 118.26-15.40Q117.72-16.04 116.88-16.04L116.88-16.04Z"/></g>
</svg>
</g></svg>